<mxfile host="app.diagrams.net" modified="2021-12-14T09:47:15.516Z" agent="5.0 (Macintosh; Intel Mac OS X 10_15_7) AppleWebKit/537.36 (KHTML, like Gecko) Chrome/96.0.4664.93 Safari/537.36" etag="MXpzZ47x6UXqNcbWKlTN" version="15.9.4" type="github">
  <diagram id="opypEgR2mQ13dDauqySi" name="Page-1">
    <mxGraphModel dx="706" dy="618" grid="1" gridSize="10" guides="1" tooltips="1" connect="1" arrows="1" fold="1" page="1" pageScale="1" pageWidth="827" pageHeight="1169" math="0" shadow="0">
      <root>
        <mxCell id="0" />
        <mxCell id="1" parent="0" />
        <mxCell id="DSEAa40tuHPcEJwCOsKB-1" value="用户" style="swimlane;" parent="1" vertex="1">
          <mxGeometry x="80" y="60" width="250" height="700" as="geometry" />
        </mxCell>
        <mxCell id="DSEAa40tuHPcEJwCOsKB-5" value="在APP输入框输入@" style="rounded=0;whiteSpace=wrap;html=1;" parent="DSEAa40tuHPcEJwCOsKB-1" vertex="1">
          <mxGeometry x="65" y="50" width="120" height="60" as="geometry" />
        </mxCell>
        <mxCell id="DSEAa40tuHPcEJwCOsKB-22" value="继续输入内容" style="rounded=0;whiteSpace=wrap;html=1;" parent="DSEAa40tuHPcEJwCOsKB-1" vertex="1">
          <mxGeometry x="65" y="150" width="120" height="60" as="geometry" />
        </mxCell>
        <mxCell id="DSEAa40tuHPcEJwCOsKB-39" value="用户选择搜索全部用户" style="rounded=0;whiteSpace=wrap;html=1;" parent="DSEAa40tuHPcEJwCOsKB-1" vertex="1">
          <mxGeometry x="60" y="370" width="120" height="60" as="geometry" />
        </mxCell>
        <mxCell id="DSEAa40tuHPcEJwCOsKB-53" value="用户完成@选择" style="rounded=0;whiteSpace=wrap;html=1;" parent="DSEAa40tuHPcEJwCOsKB-1" vertex="1">
          <mxGeometry x="60" y="580" width="120" height="60" as="geometry" />
        </mxCell>
        <mxCell id="DSEAa40tuHPcEJwCOsKB-4" value="前端" style="swimlane;" parent="1" vertex="1">
          <mxGeometry x="330" y="60" width="250" height="700" as="geometry" />
        </mxCell>
        <mxCell id="DSEAa40tuHPcEJwCOsKB-15" value="拉起@功能用户选择列表" style="rounded=0;whiteSpace=wrap;html=1;" parent="DSEAa40tuHPcEJwCOsKB-4" vertex="1">
          <mxGeometry x="20" y="50" width="120" height="60" as="geometry" />
        </mxCell>
        <mxCell id="DSEAa40tuHPcEJwCOsKB-21" value="展示结果" style="rounded=0;whiteSpace=wrap;html=1;" parent="DSEAa40tuHPcEJwCOsKB-4" vertex="1">
          <mxGeometry x="20" y="270" width="120" height="60" as="geometry" />
        </mxCell>
        <mxCell id="DSEAa40tuHPcEJwCOsKB-51" value="在另一个也谬安展示结果" style="rounded=0;whiteSpace=wrap;html=1;" parent="DSEAa40tuHPcEJwCOsKB-4" vertex="1">
          <mxGeometry x="20" y="580" width="120" height="60" as="geometry" />
        </mxCell>
        <mxCell id="DSEAa40tuHPcEJwCOsKB-59" value="默认展示所有关注用户" style="text;html=1;align=center;verticalAlign=middle;whiteSpace=wrap;rounded=0;fontSize=10;shadow=0;fillColor=#dae8fc;strokeColor=#6c8ebf;" parent="DSEAa40tuHPcEJwCOsKB-4" vertex="1">
          <mxGeometry x="150" y="65" width="70" height="30" as="geometry" />
        </mxCell>
        <mxCell id="DSEAa40tuHPcEJwCOsKB-23" value="后台" style="swimlane;startSize=23;" parent="1" vertex="1">
          <mxGeometry x="580" y="60" width="250" height="700" as="geometry" />
        </mxCell>
        <mxCell id="DSEAa40tuHPcEJwCOsKB-6" value="根据用户输入内容在我的关注列表进行模糊查找" style="rounded=0;whiteSpace=wrap;html=1;" parent="DSEAa40tuHPcEJwCOsKB-23" vertex="1">
          <mxGeometry x="65" y="150" width="120" height="60" as="geometry" />
        </mxCell>
        <mxCell id="DSEAa40tuHPcEJwCOsKB-43" value="根据用户输入内容在所有用户中进行模糊查询" style="rounded=0;whiteSpace=wrap;html=1;" parent="DSEAa40tuHPcEJwCOsKB-23" vertex="1">
          <mxGeometry x="65" y="370" width="120" height="60" as="geometry" />
        </mxCell>
        <mxCell id="DSEAa40tuHPcEJwCOsKB-30" style="edgeStyle=orthogonalEdgeStyle;rounded=0;orthogonalLoop=1;jettySize=auto;html=1;exitX=0.5;exitY=1;exitDx=0;exitDy=0;entryX=0.5;entryY=0;entryDx=0;entryDy=0;fontSize=10;" parent="1" source="DSEAa40tuHPcEJwCOsKB-15" target="DSEAa40tuHPcEJwCOsKB-22" edge="1">
          <mxGeometry relative="1" as="geometry" />
        </mxCell>
        <mxCell id="DSEAa40tuHPcEJwCOsKB-31" style="edgeStyle=orthogonalEdgeStyle;rounded=0;orthogonalLoop=1;jettySize=auto;html=1;exitX=1;exitY=0.5;exitDx=0;exitDy=0;entryX=0;entryY=0.5;entryDx=0;entryDy=0;fontSize=10;" parent="1" source="DSEAa40tuHPcEJwCOsKB-5" target="DSEAa40tuHPcEJwCOsKB-15" edge="1">
          <mxGeometry relative="1" as="geometry" />
        </mxCell>
        <mxCell id="DSEAa40tuHPcEJwCOsKB-35" style="edgeStyle=orthogonalEdgeStyle;rounded=0;orthogonalLoop=1;jettySize=auto;html=1;exitX=1;exitY=0.5;exitDx=0;exitDy=0;entryX=0;entryY=0.5;entryDx=0;entryDy=0;fontSize=10;" parent="1" source="DSEAa40tuHPcEJwCOsKB-22" target="DSEAa40tuHPcEJwCOsKB-6" edge="1">
          <mxGeometry relative="1" as="geometry" />
        </mxCell>
        <mxCell id="DSEAa40tuHPcEJwCOsKB-49" style="edgeStyle=orthogonalEdgeStyle;rounded=0;orthogonalLoop=1;jettySize=auto;html=1;exitX=1;exitY=0.5;exitDx=0;exitDy=0;entryX=0;entryY=0.5;entryDx=0;entryDy=0;fontSize=10;" parent="1" source="DSEAa40tuHPcEJwCOsKB-39" target="DSEAa40tuHPcEJwCOsKB-43" edge="1">
          <mxGeometry relative="1" as="geometry" />
        </mxCell>
        <mxCell id="DSEAa40tuHPcEJwCOsKB-52" style="edgeStyle=orthogonalEdgeStyle;rounded=0;orthogonalLoop=1;jettySize=auto;html=1;exitX=0.5;exitY=1;exitDx=0;exitDy=0;entryX=1;entryY=0.5;entryDx=0;entryDy=0;fontSize=10;" parent="1" source="DSEAa40tuHPcEJwCOsKB-43" target="DSEAa40tuHPcEJwCOsKB-51" edge="1">
          <mxGeometry relative="1" as="geometry" />
        </mxCell>
        <mxCell id="DSEAa40tuHPcEJwCOsKB-54" style="edgeStyle=orthogonalEdgeStyle;rounded=0;orthogonalLoop=1;jettySize=auto;html=1;exitX=0;exitY=0.5;exitDx=0;exitDy=0;entryX=0;entryY=0.5;entryDx=0;entryDy=0;fontSize=10;" parent="1" source="DSEAa40tuHPcEJwCOsKB-21" target="DSEAa40tuHPcEJwCOsKB-53" edge="1">
          <mxGeometry relative="1" as="geometry" />
        </mxCell>
        <mxCell id="DSEAa40tuHPcEJwCOsKB-56" style="edgeStyle=orthogonalEdgeStyle;rounded=0;orthogonalLoop=1;jettySize=auto;html=1;exitX=0;exitY=0.5;exitDx=0;exitDy=0;entryX=1;entryY=0.5;entryDx=0;entryDy=0;fontSize=10;" parent="1" source="DSEAa40tuHPcEJwCOsKB-51" target="DSEAa40tuHPcEJwCOsKB-53" edge="1">
          <mxGeometry relative="1" as="geometry" />
        </mxCell>
        <mxCell id="Fez-gtFQf5t7iwzj8z49-1" style="edgeStyle=orthogonalEdgeStyle;rounded=0;orthogonalLoop=1;jettySize=auto;html=1;entryX=1;entryY=0.5;entryDx=0;entryDy=0;" edge="1" parent="1" source="DSEAa40tuHPcEJwCOsKB-6" target="DSEAa40tuHPcEJwCOsKB-21">
          <mxGeometry relative="1" as="geometry">
            <Array as="points">
              <mxPoint x="705" y="360" />
            </Array>
          </mxGeometry>
        </mxCell>
      </root>
    </mxGraphModel>
  </diagram>
</mxfile>
